<svg xmlns="http://www.w3.org/2000/svg" viewBox="0 0 1024 1024">
  <!-- אייקון TripTales — ספר פתוח עם קו מסלול; שוחזר מהעיצוב של גלי (2026-07-20) -->
  <rect width="1024" height="1024" rx="232" fill="#e0716a"/>
  <g fill="none" stroke="#fdf8f0" stroke-width="30" stroke-linejoin="round" stroke-linecap="round">
    <!-- עמוד שמאל -->
    <path d="M168 312 C300 232 442 252 506 296 L506 704 C442 662 300 646 168 722 Z"/>
    <!-- עמוד ימין -->
    <path d="M856 312 C724 232 582 252 518 296 L518 704 C582 662 724 646 856 722 Z"/>
  </g>
  <!-- קו המסלול -->
  <path d="M256 636 C300 588 328 664 402 630 C476 596 512 616 592 560 C660 512 700 496 744 452"
        fill="none" stroke="#20243a" stroke-width="36" stroke-linecap="round"/>
  <circle cx="256" cy="636" r="32" fill="#20243a"/>
  <circle cx="756" cy="442" r="36" fill="#fdf8f0"/>
</svg>
