<svg xmlns="http://www.w3.org/2000/svg" viewBox="0 0 1024 1024">
  <!-- אייקון TripTales — ספר פתוח עם מסלול מקווקו שעולה, יורד ומגיע לנקודת ציון.
       המסלול נקטע בשדרת הספר כדי שלא ייגע באף קו מתאר. -->
  <rect width="1024" height="1024" rx="232" fill="#e0716a"/>

  <!-- שני עמודי הספר -->
  <g fill="none" stroke="#fdf8f0" stroke-width="30" stroke-linejoin="round" stroke-linecap="round">
    <path d="M168 312 C300 232 442 252 506 296 L506 704 C442 662 300 646 168 722 Z"/>
    <path d="M856 312 C724 232 582 252 518 296 L518 704 C582 662 724 646 856 722 Z"/>
  </g>

  <!-- המסלול: עולה לפסגה, יורד לגיא, ומטפס אל הסיכה. שני קטעים עם פער בשדרה. -->
  <g fill="none" stroke="#20243a" stroke-width="20" stroke-linecap="round" stroke-dasharray="40 34">
    <path d="M288 580 C330 562 368 448 412 448 C428 448 445 464 463 485"/>
    <path d="M539 572 C546 577 553 580 560 580 C606 580 690 508 730 466"/>
  </g>

  <!-- נקודת ההתחלה -->
  <circle cx="288" cy="580" r="18" fill="#20243a"/>

  <!-- נקודת הציון בסוף הדרך -->
  <path d="M730 466 c -29 -41 -52 -64 -52 -93 a 52 52 0 1 1 104 0 c 0 29 -23 52 -52 93 z" fill="#20243a"/>
  <circle cx="730" cy="373" r="20" fill="#e0716a"/>
</svg>
